<svg width="819" height="203" viewBox="0 0 819 203" fill="none" xmlns="http://www.w3.org/2000/svg">
<path d="M360.133 91.4517C357.98 85.8978 354.122 81.1702 349.114 77.9488C343.647 74.5588 337.305 72.8496 330.875 73.0333C327.335 73.0304 323.818 73.5909 320.454 74.6941C317.229 75.7245 314.14 77.1425 311.257 78.917C309.065 80.2568 307.009 81.8051 305.115 83.5403L305.478 81.481C305.719 80.4275 305.707 79.3318 305.441 78.2841C305.176 77.2365 304.665 76.267 303.952 75.4556C303.17 74.6293 302.217 73.9844 301.16 73.5662C300.102 73.148 298.966 72.9667 297.831 73.0351C295.294 72.9988 292.825 73.8556 290.856 75.4556C288.928 76.9356 287.626 79.086 287.207 81.481L272.188 166.679C271.929 167.741 271.931 168.85 272.195 169.912C272.459 170.973 272.976 171.954 273.703 172.771C274.499 173.58 275.458 174.209 276.518 174.616C277.577 175.022 278.712 175.196 279.844 175.126C282.381 175.162 284.85 174.305 286.819 172.706C288.747 171.226 290.049 169.076 290.469 166.682L295.068 140.598C296.056 141.662 297.131 142.643 298.281 143.531C300.872 145.502 303.763 147.046 306.842 148.102C310.411 149.339 314.168 149.949 317.945 149.902C324.76 149.924 331.472 148.234 337.465 144.987C343.614 141.673 348.953 137.037 353.098 131.413C357.471 125.51 360.377 118.65 361.575 111.401C362.978 104.748 362.478 97.8335 360.133 91.4517ZM339.15 123.241C336.747 126.703 333.586 129.569 329.906 131.62C326.175 133.669 321.978 134.719 317.722 134.666C313.77 134.81 309.867 133.748 306.533 131.62C303.55 129.601 301.313 126.657 300.169 123.241C298.897 119.425 298.645 115.344 299.437 111.401C300.15 107.131 301.828 103.081 304.343 99.5587C306.778 96.1433 309.955 93.3256 313.637 91.3177C317.398 89.2738 321.619 88.2252 325.899 88.2715C329.828 88.1203 333.708 89.184 337.011 91.3177C339.934 93.3268 342.145 96.2123 343.324 99.5587C344.616 103.371 344.868 107.458 344.055 111.401C343.321 115.663 341.645 119.708 339.15 123.241Z" fill="#023F86"/>
<path d="M455.419 75.3886C454.623 74.5801 453.663 73.9517 452.604 73.5458C451.544 73.1398 450.41 72.9657 449.278 73.0352C446.741 72.999 444.273 73.8557 442.305 75.4557C440.375 76.9346 439.072 79.0854 438.653 81.481L438.616 81.684C437.809 80.8709 436.952 80.1091 436.05 79.403C433.415 77.4139 430.472 75.8704 427.338 74.8338C423.563 73.5808 419.604 72.9722 415.627 73.0333C408.838 73.0299 402.155 74.7193 396.183 77.9488C389.999 81.2454 384.629 85.883 380.466 91.5225C376.093 97.4255 373.187 104.285 371.989 111.535C370.603 118.165 371.104 125.051 373.435 131.409C375.574 137.009 379.46 141.769 384.518 144.983C389.966 148.355 396.28 150.064 402.685 149.899C406.435 149.916 410.162 149.331 413.727 148.167C416.993 147.12 420.129 145.703 423.075 143.944C424.918 142.841 426.67 141.591 428.313 140.207C428.093 141.24 428.117 142.31 428.385 143.332C428.653 144.354 429.156 145.299 429.854 146.091C430.635 146.918 431.587 147.564 432.645 147.982C433.702 148.4 434.839 148.581 435.973 148.511C438.51 148.548 440.979 147.691 442.948 146.091C444.876 144.611 446.179 142.461 446.6 140.066L456.927 81.481C457.186 80.4192 457.184 79.3104 456.921 78.2494C456.659 77.1884 456.143 76.2069 455.419 75.3886ZM419.926 131.62C416.164 133.664 411.943 134.713 407.663 134.666C403.761 134.797 399.911 133.735 396.628 131.62C393.656 129.616 391.417 126.699 390.25 123.31C388.968 119.52 388.711 115.458 389.505 111.537C390.226 107.245 391.906 103.171 394.42 99.6202C396.847 96.1753 400.03 93.3325 403.725 91.3103C407.437 89.2793 411.605 88.2307 415.835 88.2641C419.787 88.1207 423.689 89.1831 427.024 91.3103C429.994 93.3148 432.233 96.2314 433.401 99.6202C434.684 103.46 434.931 107.571 434.118 111.537C433.394 115.779 431.722 119.804 429.227 123.31C426.802 126.754 423.62 129.597 419.926 131.62Z" fill="#023F86"/>
<path d="M535.471 75.4559C534.689 74.6295 533.736 73.9846 532.678 73.5664C531.621 73.1482 530.485 72.9669 529.35 73.0353C526.813 72.9991 524.344 73.8558 522.375 75.4559C520.447 76.9359 519.144 79.0862 518.725 81.4812L512.476 116.937C511.978 120.145 510.763 123.2 508.921 125.874C507.237 128.265 504.959 130.174 502.311 131.413C499.382 132.717 496.201 133.356 492.996 133.284C487.819 133.284 484 132.061 481.538 129.613C479.077 127.165 478.374 122.941 479.431 116.94L485.681 81.4849C485.923 80.4316 485.911 79.3356 485.646 78.2878C485.38 77.24 484.869 76.2705 484.155 75.4596C483.373 74.6333 482.42 73.9883 481.363 73.5701C480.305 73.1519 479.169 72.9707 478.034 73.0391C475.498 73.0026 473.029 73.8594 471.061 75.4596C469.131 76.9389 467.828 79.0895 467.409 81.4849L460.28 121.927C459.327 126.518 459.646 131.282 461.201 135.705C462.641 139.619 465.355 142.935 468.905 145.121C472.989 147.508 477.666 148.685 482.392 148.515C486.592 148.56 490.779 148.048 494.844 146.992C498.404 146.054 501.785 144.532 504.849 142.49C506.201 141.569 507.477 140.54 508.664 139.414L508.404 140.904C507.855 144.908 506.373 148.727 504.077 152.053C502.047 154.757 499.249 156.784 496.049 157.87C492.187 159.107 488.147 159.692 484.093 159.6C481.069 159.672 478.058 159.179 475.214 158.145C472.744 157.177 470.738 156.462 469.198 156C467.084 155.261 464.764 155.384 462.742 156.345C460.365 157.486 458.462 159.422 457.36 161.817C456.84 162.676 456.538 163.648 456.481 164.65C456.424 165.652 456.613 166.653 457.032 167.565C458.262 169.691 460.229 171.292 462.559 172.065C465.327 173.136 468.225 173.834 471.176 174.143C474.57 174.592 477.989 174.824 481.412 174.836C488.345 174.898 495.238 173.774 501.793 171.512C507.988 169.354 513.508 165.605 517.798 160.64C522.545 154.812 525.599 147.792 526.629 140.345L537.006 81.483C537.247 80.4286 537.233 79.332 536.966 78.2839C536.699 77.2358 536.186 76.2664 535.471 75.4559Z" fill="#023F86"/>
<path d="M652.415 75.4558C651.707 74.6604 650.833 74.0311 649.854 73.6127C648.875 73.1943 647.816 72.9971 646.752 73.0353C642.081 73.0353 638.828 74.7892 636.993 78.2972L613.652 118.121L607.045 89.2399C606.741 87.7786 605.991 86.4475 604.899 85.4303C603.481 84.4322 601.757 83.9662 600.029 84.114C598.167 84.0687 596.327 84.5194 594.697 85.4202C593.066 86.3209 591.705 87.6393 590.752 89.2399L573.515 118.89L564.21 78.2991C564.129 77.4838 563.863 76.6978 563.431 76.0015C562.999 75.3053 562.414 74.7173 561.72 74.2828C560.213 73.419 558.498 72.9879 556.762 73.0371C554.125 72.9613 551.559 73.9034 549.597 75.6681C547.793 77.2006 546.563 79.3019 546.111 81.6264C545.915 82.6809 545.931 83.7642 546.16 84.8122L559.399 141.872C559.574 142.766 559.947 143.609 560.49 144.34C561.033 145.071 561.732 145.671 562.537 146.097C564.208 147.06 566.157 147.426 568.064 147.136C569.828 147.018 571.538 146.478 573.051 145.562C574.563 144.646 575.834 143.381 576.757 141.872L595.028 107.798L602.035 141.872C602.443 143.377 603.332 144.706 604.567 145.657C605.802 146.608 607.315 147.127 608.873 147.136C610.947 147.369 613.045 146.996 614.912 146.062C616.78 145.128 618.337 143.673 619.395 141.872L652.75 84.8122C653.033 84.3506 653.272 83.8631 653.463 83.3562C653.668 82.7948 653.821 82.2158 653.921 81.6264C654.176 80.5521 654.173 79.4324 653.911 78.3596C653.649 77.2868 653.137 76.2915 652.415 75.4558Z" fill="#023F86"/>
<path d="M737.24 75.3887C736.445 74.5812 735.486 73.9534 734.429 73.5474C733.371 73.1415 732.239 72.9669 731.108 73.0352C728.571 72.999 726.102 73.8557 724.133 75.4558C722.204 76.9353 720.901 79.0858 720.481 81.4811L720.446 81.6841C719.638 80.872 718.781 80.1102 717.88 79.4031C715.245 77.4144 712.302 75.8709 709.168 74.8339C705.392 73.5809 701.433 72.9723 697.455 73.0334C690.666 73.03 683.983 74.7193 678.011 77.9489C671.827 81.2459 666.457 85.8835 662.294 91.5227C657.921 97.4255 655.015 104.285 653.818 111.535C652.432 118.165 652.933 125.05 655.264 131.409C657.403 137.009 661.29 141.769 666.348 144.983C671.796 148.356 678.11 150.064 684.515 149.899C688.264 149.916 691.991 149.331 695.555 148.167C698.822 147.121 701.958 145.704 704.903 143.944C706.746 142.84 708.499 141.591 710.143 140.207C709.923 141.24 709.947 142.31 710.214 143.332C710.481 144.354 710.984 145.299 711.682 146.091C712.463 146.918 713.416 147.563 714.473 147.981C715.531 148.4 716.667 148.581 717.802 148.512C720.338 148.548 722.807 147.691 724.777 146.091C726.705 144.611 728.008 142.461 728.428 140.066L738.755 81.4811C739.013 80.4187 739.01 79.3095 738.746 78.2485C738.482 77.1875 737.966 76.2062 737.24 75.3887ZM701.746 131.62C697.985 133.664 693.764 134.713 689.484 134.666C685.581 134.797 681.732 133.734 678.448 131.62C675.477 129.616 673.238 126.699 672.071 123.31C670.791 119.52 670.534 115.458 671.326 111.537C672.047 107.245 673.728 103.171 676.243 99.6203C678.668 96.1744 681.852 93.3315 685.548 91.3104C689.259 89.2791 693.428 88.2306 697.658 88.2642C701.61 88.1207 705.512 89.1831 708.846 91.3104C711.816 93.3155 714.054 96.232 715.222 99.6203C716.505 103.46 716.753 107.571 715.941 111.537C715.215 115.779 713.543 119.803 711.048 123.31C708.623 126.755 705.441 129.598 701.746 131.62Z" fill="#023F86"/>
<path d="M817.289 75.4558C816.508 74.6296 815.555 73.9848 814.498 73.5666C813.441 73.1484 812.305 72.967 811.17 73.0353C808.633 72.9987 806.164 73.8555 804.195 75.4558C802.266 76.9356 800.963 79.0859 800.544 81.4811L794.294 116.937C793.797 120.145 792.582 123.2 790.74 125.874C789.056 128.265 786.777 130.174 784.129 131.413C781.204 132.716 778.026 133.355 774.824 133.284C769.646 133.284 765.825 132.061 763.364 129.613C760.902 127.165 760.2 122.941 761.257 116.94L767.508 81.4849C767.75 80.4313 767.737 79.3353 767.472 78.2876C767.206 77.2399 766.695 76.2705 765.981 75.4595C765.199 74.633 764.247 73.988 763.19 73.5697C762.132 73.1515 760.996 72.9704 759.862 73.039C757.325 73.0028 754.856 73.8595 752.887 75.4595C750.958 76.9393 749.655 79.0897 749.235 81.4849L742.107 121.927C741.153 126.517 741.471 131.282 743.029 135.705C744.468 139.62 747.181 142.937 750.733 145.121C754.816 147.508 759.493 148.685 764.218 148.515C768.418 148.56 772.605 148.048 776.67 146.992C780.231 146.054 783.611 144.532 786.675 142.49C788.028 141.569 789.304 140.54 790.492 139.414L790.23 140.904C789.681 144.908 788.199 148.727 785.905 152.053C783.874 154.757 781.076 156.784 777.875 157.87C774.014 159.107 769.974 159.692 765.921 159.6C762.897 159.673 759.885 159.18 757.042 158.145C754.571 157.177 752.564 156.462 751.023 156C748.91 155.261 746.59 155.384 744.568 156.345C742.192 157.487 740.288 159.422 739.186 161.817C738.666 162.676 738.364 163.648 738.307 164.65C738.25 165.652 738.439 166.653 738.858 167.565C740.088 169.691 742.055 171.292 744.385 172.065C747.153 173.135 750.05 173.834 753.002 174.143C756.395 174.592 759.814 174.824 763.237 174.836C770.171 174.898 777.064 173.774 783.619 171.512C789.814 169.353 795.333 165.604 799.624 160.64C804.369 154.812 807.424 147.791 808.455 140.345L818.83 81.483C819.07 80.4281 819.056 79.3312 818.788 78.283C818.52 77.2349 818.006 76.2658 817.289 75.4558Z" fill="#023F86"/>
<path d="M56.6943 47.5596L11.073 1.91559C9.91626 0.732205 8.34421 0.0462143 6.69035 0.00329205C5.82087 -0.0244389 4.95475 0.123264 4.14348 0.437415C3.33221 0.751567 2.59252 1.2258 1.96827 1.83195C1.34401 2.43811 0.847922 3.16372 0.509795 3.96563C0.171668 4.76755 -0.00167787 5.62934 1.22407e-05 6.49969V97.7971C-0.00167787 98.6674 0.171668 99.5292 0.509795 100.331C0.847922 101.133 1.34401 101.859 1.96827 102.465C2.59252 103.071 3.33221 103.545 4.14348 103.859C4.95475 104.173 5.82087 104.321 6.69035 104.293C8.34421 104.251 9.91626 103.565 11.073 102.381L56.6943 56.7372C57.9104 55.52 58.5935 53.8695 58.5935 52.1484C58.5935 50.4274 57.9104 48.7768 56.6943 47.5596ZM52.3841 54.1248L9.65863 96.8717C9.26832 97.2631 8.77077 97.5299 8.22878 97.6382C7.68679 97.7464 7.12487 97.6912 6.61424 97.4797C6.10362 97.2681 5.66727 96.9096 5.36046 96.4497C5.05365 95.9898 4.89027 95.4491 4.89089 94.8962V9.40058C4.89027 8.84763 5.05365 8.30699 5.36046 7.84706C5.66727 7.38713 6.10362 7.02867 6.61424 6.8171C7.12487 6.60552 7.68679 6.55032 8.22878 6.65856C8.77077 6.7668 9.26832 7.0336 9.65863 7.4251L52.3841 50.1719C52.6438 50.4313 52.8498 50.7394 52.9904 51.0786C53.131 51.4177 53.2033 51.7813 53.2033 52.1484C53.2033 52.5156 53.131 52.879 52.9904 53.2182C52.8498 53.5573 52.6438 53.8654 52.3841 54.1248Z" fill="#023F86"/>
<path d="M210.376 52.224C210.376 50.9408 209.996 49.6865 209.283 48.6196C208.571 47.5526 207.558 46.721 206.373 46.2299C205.188 45.7389 203.884 45.6104 202.626 45.8607C201.368 46.111 200.212 46.7289 199.305 47.6362L157.17 89.8095L108.558 41.1826C107.343 39.9669 105.694 39.284 103.976 39.284C102.257 39.284 100.61 39.9669 99.3943 41.1826L1.89874 138.673C1.29675 139.275 0.819223 139.99 0.493426 140.777C0.167629 141.564 0 142.407 0 143.259C0 144.111 0.167629 144.954 0.493426 145.741C0.819223 146.528 1.29675 147.243 1.89874 147.845L27.2552 173.216C28.4708 174.432 30.1192 175.115 31.838 175.115C33.5568 175.115 35.2053 174.432 36.4209 173.216L99.3943 110.211C99.9961 109.609 100.71 109.131 101.497 108.805C102.283 108.479 103.126 108.311 103.977 108.311C104.828 108.311 105.671 108.479 106.457 108.805C107.244 109.131 107.958 109.609 108.56 110.211L199.422 201.119C200.321 202.018 201.466 202.629 202.712 202.877C203.958 203.124 205.249 202.997 206.423 202.51C207.597 202.024 208.6 201.2 209.305 200.143C210.011 199.086 210.388 197.843 210.388 196.572L210.376 52.224ZM200.72 53.1401C201.11 52.7486 201.608 52.4818 202.15 52.3736C202.692 52.2653 203.254 52.3206 203.764 52.5321C204.275 52.7437 204.711 53.1022 205.018 53.5621C205.325 54.022 205.488 54.5627 205.488 55.1156V138.159L160.618 93.2635L200.72 53.1401ZM112.016 106.753C110.96 105.697 109.707 104.859 108.327 104.287C106.948 103.715 105.469 103.42 103.976 103.42C102.483 103.42 101.004 103.715 99.6249 104.287C98.2454 104.859 96.992 105.697 95.9364 106.753L33.8136 168.907C33.5543 169.167 33.2463 169.373 32.9074 169.514C32.5684 169.655 32.205 169.727 31.838 169.727C31.4711 169.727 31.1077 169.655 30.7687 169.514C30.4298 169.373 30.1218 169.167 29.8625 168.907L6.20509 145.236C5.9454 144.977 5.73955 144.669 5.59898 144.33C5.45842 143.991 5.38589 143.627 5.38589 143.26C5.38589 142.893 5.45842 142.529 5.59898 142.19C5.73955 141.851 5.9454 141.543 6.20509 141.283L102.001 45.4913C102.261 45.2317 102.569 45.0258 102.907 44.8853C103.246 44.7448 103.609 44.6726 103.976 44.6726C104.343 44.6726 104.706 44.7448 105.045 44.8853C105.383 45.0258 105.691 45.2317 105.951 45.4913L153.706 93.2746L126.137 120.878L112.016 106.753ZM200.729 195.509L129.588 124.334L157.157 96.7229L205.486 145.078L205.497 193.532C205.498 194.085 205.335 194.626 205.028 195.086C204.721 195.546 204.285 195.905 203.774 196.117C203.263 196.328 202.702 196.384 202.159 196.276C201.617 196.167 201.119 195.901 200.729 195.509Z" fill="#023F86"/>
</svg>
